<svg width="248" height="44" viewBox="0 0 248 44" fill="none" xmlns="http://www.w3.org/2000/svg">
<path d="M123.563 11.6293C121.967 11.6293 120.579 11.0592 119.401 9.91908C118.261 8.74095 117.691 7.3728 117.691 5.81463C117.691 4.25646 118.261 2.90732 119.401 1.76719C120.579 0.589064 121.967 0 123.563 0C125.121 0 126.47 0.589064 127.61 1.76719C128.788 2.90732 129.377 4.25646 129.377 5.81463C129.377 7.3728 128.788 8.74095 127.61 9.91908C126.47 11.0592 125.121 11.6293 123.563 11.6293ZM118.261 42.2986V13.7955H128.807V42.2986H118.261Z" fill="#CAFD39"/>
<path d="M104.027 2.39429H114.574V42.2986H104.027V39.7333C102.203 41.9756 99.657 43.0967 96.3886 43.0967C92.5502 43.0967 89.4149 41.6716 86.9826 38.8212C84.5504 35.9709 83.3342 32.3795 83.3342 28.0471C83.3342 23.7146 84.5504 20.1232 86.9826 17.2729C89.4149 14.4226 92.5502 12.9974 96.3886 12.9974C99.657 12.9974 102.203 14.1186 104.027 16.3608V2.39429ZM95.2485 31.8665C96.1986 32.8926 97.4338 33.4057 98.9539 33.4057C100.474 33.4057 101.69 32.8926 102.602 31.8665C103.552 30.8404 104.027 29.5672 104.027 28.0471C104.027 26.5269 103.552 25.2538 102.602 24.2277C101.69 23.2015 100.474 22.6885 98.9539 22.6885C97.4338 22.6885 96.1986 23.2015 95.2485 24.2277C94.3364 25.2538 93.8804 26.5269 93.8804 28.0471C93.8804 29.5672 94.3364 30.8404 95.2485 31.8665Z" fill="#CAFD39"/>
<path d="M45.4268 26.65C45.4268 24.2653 44.8934 22.1079 43.7507 20.2522C42.751 18.5675 41.5462 17.1712 40.1182 16.11C38.7991 15.0634 37.3749 14.2635 35.8475 13.7257C34.3552 13.1863 32.8124 12.9155 31.2281 12.9155C29.6749 12.9155 28.1352 13.1892 26.6166 13.7229L26.6086 13.7257L26.6007 13.7285C25.2717 14.2098 23.9955 14.8837 22.7722 15.7385C21.5402 14.8801 20.2416 14.206 18.8773 13.7257C17.385 13.1863 15.8421 12.9155 14.2578 12.9155C12.7046 12.9155 11.1649 13.1892 9.64632 13.7229L9.63838 13.7257L9.63047 13.7285C8.14309 14.2671 6.72615 15.0652 5.37922 16.1015C3.94226 17.1667 2.73097 18.5708 1.72688 20.2662C0.642319 22.0975 0.0889911 24.2242 0.00123087 26.5838L0 26.6169V43.2001H11.0409V27.1606C11.0753 26.4362 11.2244 25.956 11.4019 25.6419L11.4131 25.6221L11.4237 25.602C11.7039 25.075 11.9615 24.7765 12.1586 24.6159L12.1946 24.5866L12.2289 24.5555C12.5353 24.2782 12.7744 24.1457 12.9408 24.0855L12.9792 24.0716L13.017 24.0559C13.2916 23.942 13.9787 23.8975 14.1987 23.8975C14.4187 23.8975 15.1058 23.942 15.3805 24.0559L15.4404 24.0808L15.502 24.1012C15.703 24.1679 15.946 24.3005 16.2276 24.5555L16.262 24.5866L16.2979 24.6159C16.4951 24.7765 16.7526 25.075 17.0328 25.602L17.0435 25.6221L17.0547 25.6419C17.2191 25.9331 17.3565 26.3946 17.3565 27.121V43.2001H28.0112V27.1606C28.0455 26.4362 28.1947 25.956 28.3721 25.6419L28.3833 25.6221L28.394 25.602C28.6742 25.075 28.9317 24.7765 29.1289 24.6159L29.1648 24.5866L29.1992 24.5555C29.5055 24.2782 29.7447 24.1457 29.911 24.0855L29.9495 24.0716L29.9872 24.0559C30.2619 23.942 30.949 23.8975 31.169 23.8975C31.3889 23.8975 32.0761 23.942 32.3507 24.0559L32.4107 24.0808L32.4722 24.1012C32.6732 24.1679 32.9162 24.3005 33.1979 24.5555L33.2322 24.5866L33.2682 24.6159C33.4653 24.7765 33.7229 25.075 34.0031 25.602L34.0137 25.6221L34.0249 25.6419C34.1894 25.9331 34.3268 26.3946 34.3268 27.121V43.2001H45.4268V26.65Z" fill="#CAFD39"/>
<path fill-rule="evenodd" clip-rule="evenodd" d="M47.5909 38.8409C50.5555 41.747 54.1394 43.2001 58.3425 43.2001C62.583 43.2001 66.1669 41.747 69.094 38.8409C69.5237 38.4144 69.9218 37.973 70.2884 37.5168C71.9922 38.6335 73.9484 39.1918 76.1569 39.1918C79.1238 39.1918 81.6535 38.1661 83.7462 36.1148C85.8125 34.0634 86.8456 31.5262 86.8456 28.5032C86.8456 25.4801 85.8125 22.9429 83.7462 20.8915C81.68 18.8402 79.1503 17.8145 76.1569 17.8145C74.1452 17.8145 72.3429 18.2777 70.75 19.2042C70.2631 18.5304 69.7111 17.8873 69.094 17.2747C66.1669 14.3686 62.583 12.9155 58.3425 12.9155C54.1019 12.9155 50.518 14.3686 47.5909 17.2747C44.6638 20.1808 43.2002 23.7751 43.2002 28.0578C43.2002 32.3405 44.6638 35.9348 47.5909 38.8409ZM58.3425 34.7382C62.032 34.7382 65.0229 31.7473 65.0229 28.0578C65.0229 24.3683 62.032 21.3774 58.3425 21.3774C54.653 21.3774 51.6621 24.3683 51.6621 28.0578C51.6621 31.7473 54.653 34.7382 58.3425 34.7382ZM76.1569 32.5114C78.3706 32.5114 80.1651 30.7169 80.1651 28.5032C80.1651 26.2895 78.3706 24.4949 76.1569 24.4949C73.9432 24.4949 72.1486 26.2895 72.1486 28.5032C72.1486 30.7169 73.9432 32.5114 76.1569 32.5114Z" fill="#CAFD39"/>
<path d="M143.041 2.22681H132.495V42.1311H143.041V39.5659C144.865 41.8081 147.412 42.9292 150.68 42.9292C154.518 42.9292 157.654 41.5041 160.086 38.6538C162.518 35.8035 163.734 32.2121 163.734 27.8796C163.734 23.5471 162.518 19.9557 160.086 17.1054C157.654 14.2551 154.518 12.83 150.68 12.83C147.412 12.83 144.865 13.9511 143.041 16.1933V2.22681ZM151.82 31.699C150.87 32.7251 149.635 33.2382 148.115 33.2382C146.595 33.2382 145.378 32.7251 144.466 31.699C143.516 30.6729 143.041 29.3998 143.041 27.8796C143.041 26.3594 143.516 25.0863 144.466 24.0602C145.378 23.0341 146.595 22.521 148.115 22.521C149.635 22.521 150.87 23.0341 151.82 24.0602C152.732 25.0863 153.188 26.3594 153.188 27.8796C153.188 29.3998 152.732 30.6729 151.82 31.699Z" fill="#CAFD39"/>
<path d="M201.642 26.4825C201.642 24.0978 202.175 21.9405 203.318 20.0847C204.318 18.4 205.523 17.0037 206.951 15.9425C208.27 14.8959 209.694 14.096 211.221 13.5582C212.714 13.0188 214.256 12.748 215.841 12.748C217.394 12.748 218.934 13.0217 220.452 13.5554L220.46 13.5582L220.468 13.5611C221.797 14.0423 223.073 14.7162 224.297 15.571C225.529 14.7126 226.827 14.0386 228.192 13.5582C229.684 13.0188 231.227 12.748 232.811 12.748C234.364 12.748 235.904 13.0217 237.423 13.5554L237.43 13.5582L237.438 13.5611C238.926 14.0997 240.343 14.8977 241.69 15.934C243.127 16.9992 244.338 18.4033 245.342 20.0987C246.427 21.9301 246.98 24.0567 247.068 26.4163L247.069 26.4494V43.0326H236.028V26.9931C235.994 26.2687 235.844 25.7885 235.667 25.4744L235.656 25.4546L235.645 25.4345C235.365 24.9075 235.107 24.6091 234.91 24.4484L234.874 24.4191L234.84 24.388C234.534 24.1107 234.294 23.9783 234.128 23.918L234.09 23.9041L234.052 23.8884C233.777 23.7745 233.09 23.73 232.87 23.73C232.65 23.73 231.963 23.7745 231.688 23.8884L231.628 23.9133L231.567 23.9337C231.366 24.0005 231.123 24.1331 230.841 24.388L230.807 24.4191L230.771 24.4484C230.574 24.6091 230.316 24.9075 230.036 25.4345L230.025 25.4546L230.014 25.4744C229.85 25.7656 229.712 26.2272 229.712 26.9536V43.0326H219.058V26.9931C219.023 26.2687 218.874 25.7885 218.697 25.4744L218.686 25.4546L218.675 25.4345C218.395 24.9075 218.137 24.6091 217.94 24.4484L217.904 24.4191L217.87 24.388C217.563 24.1107 217.324 23.9783 217.158 23.918L217.119 23.9041L217.082 23.8884C216.807 23.7745 216.12 23.73 215.9 23.73C215.68 23.73 214.993 23.7745 214.718 23.8884L214.658 23.9133L214.597 23.9337C214.396 24.0005 214.153 24.1331 213.871 24.388L213.837 24.4191L213.801 24.4484C213.603 24.6091 213.346 24.9075 213.066 25.4345L213.055 25.4546L213.044 25.4744C212.879 25.7656 212.742 26.2272 212.742 26.9536V43.0326H201.642V26.4825Z" fill="#CAFD39"/>
<path fill-rule="evenodd" clip-rule="evenodd" d="M199.478 38.6734C196.514 41.5795 192.93 43.0326 188.727 43.0326C184.486 43.0326 180.902 41.5795 177.975 38.6734C177.545 38.2469 177.147 37.8055 176.781 37.3493C175.077 38.466 173.121 39.0243 170.912 39.0243C167.945 39.0243 165.416 37.9987 163.323 35.9473C161.257 33.8959 160.224 31.3587 160.224 28.3357C160.224 25.3126 161.257 22.7754 163.323 20.7241C165.389 18.6727 167.919 17.647 170.912 17.647C172.924 17.647 174.726 18.1103 176.319 19.0367C176.806 18.363 177.358 17.7198 177.975 17.1072C180.902 14.2011 184.486 12.748 188.727 12.748C192.967 12.748 196.551 14.2011 199.478 17.1072C202.405 20.0133 203.869 23.6077 203.869 27.8903C203.869 32.173 202.405 35.7674 199.478 38.6734ZM188.727 34.5707C185.037 34.5707 182.046 31.5798 182.046 27.8903C182.046 24.2008 185.037 21.2099 188.727 21.2099C192.416 21.2099 195.407 24.2008 195.407 27.8903C195.407 31.5798 192.416 34.5707 188.727 34.5707ZM170.912 32.3439C168.698 32.3439 166.904 30.5494 166.904 28.3357C166.904 26.122 168.698 24.3274 170.912 24.3274C173.126 24.3274 174.92 26.122 174.92 28.3357C174.92 30.5494 173.126 32.3439 170.912 32.3439Z" fill="#CAFD39"/>
</svg>
